<svg width="300" height="420" fill="none" xmlns="http://www.w3.org/2000/svg"><g transform="translate(10.675 55.055) scale(0.928832)"><g clip-path="url(#a)"><path d="M150.019 46.472c-13.784 0-24.955 12.516-24.955 27.952.017 11.18 9.933 21.49 9.984 25.626.047 4.136-10.01 14.488-10.027 25.668.017 11.181 10.049 21.498 10.04 25.686-.008 4.188-10.023 14.463-10.04 25.639 0 15.44 11.214 27.986 24.998 27.986 13.789 0 24.96-12.516 24.96-27.957 0-11.171-10.083-21.489-10.096-25.664-.008-4.179 10.083-14.497 10.096-25.655 0-11.176-10.036-21.387-10.104-25.648-.064-4.26 10.091-14.518 10.104-25.68 0-15.437-11.171-27.953-24.96-27.953zm-.021 18.428c2.297 0 4.141 2.05 4.141 4.59V182.01c0 2.54-1.844 4.589-4.141 4.589-2.292 0-4.137-2.049-4.137-4.589V69.485c0-2.54 1.845-4.585 4.141-4.585h-.004zm.021 150.071c-13.784 0-24.955 12.516-24.955 27.957.017 11.175 9.933 21.489 9.984 25.625.047 4.133-10.01 14.489-10.027 25.669.017 11.176 10.049 21.498 10.04 25.685-.008 4.184-10.023 14.459-10.04 25.639 0 15.436 11.214 27.982 24.998 27.982 13.789 0 24.96-12.512 24.96-27.952 0-11.176-10.083-21.49-10.096-25.669-.008-4.175 10.083-14.492 10.096-25.655 0-11.176-10.036-21.387-10.104-25.643-.064-4.26 10.091-14.523 10.104-25.681 0-15.441-11.171-27.957-24.96-27.957zm-.021 18.429c2.297 0 4.141 2.049 4.141 4.589v112.526c0 2.54-1.844 4.585-4.141 4.585-2.292 0-4.137-2.049-4.137-4.589V237.989c0-2.54 1.845-4.589 4.141-4.589h-.004z" fill="#006F00"/></g><defs><clipPath id="a"><path fill="#fff" transform="translate(125.021 46.464)" d="M0 0h49.958v327.071H0z"/></clipPath></defs></g><path d="M95 487 47 641Q73 664 110.5 680.0Q148 696 191.5 705.0Q235 714 277 714Q352 714 411.0 689.5Q470 665 503.0 620.5Q536 576 536 512Q536 463 515.0 416.5Q494 370 459.5 328.5Q425 287 385.0 250.0Q345 213 306.5 183.0Q268 153 238 129H443Q473 129 495.5 139.0Q518 149 536.5 170.5Q555 192 572 226H582L523 0H45V10Q85 55 130.0 105.5Q175 156 218.5 209.0Q262 262 298.0 316.0Q334 370 355.0 422.5Q376 475 376 523Q376 594 340.0 635.0Q304 676 242 672Q176 668 140.5 621.5Q105 575 105 487Z" transform="translate(24.130 91.404) scale(0.086 -0.086)" fill="#1E40AF"/></svg>