<svg width="300" height="420" fill="none" xmlns="http://www.w3.org/2000/svg"><g transform="translate(13.530 59.054) scale(0.909799)"><g clip-path="url(#a)"><path d="M74.06 43.053C60.496 43.05 49.5 51.373 49.5 61.64c.213 10.532 6.382 11.1 6.288 17.426-.085 6.14-6.314 9.255-6.326 16.692.115 11.125 6.275 10.246 6.36 16.739.086 6.681-6.147 5.665-6.36 17.391 0 10.267 11.035 18.613 24.597 18.613 13.567 0 24.564-8.324 24.56-18.591 0-7.432-6.468-11.253-6.502-17.401-.034-6.147 6.288-7.013 6.502-16.734-.3-10.527-6.562-10.263-6.498-17.008.06-5.976 6.485-9.703 6.498-17.127 0-10.267-10.993-18.591-24.56-18.591v.004zm-.022 12.252c2.258 0 4.077 1.362 4.077 3.053v74.835c0 1.69-1.819 3.052-4.077 3.052-2.254 0-4.073-1.366-4.073-3.052V58.357c0-1.69 1.819-3.052 4.073-3.052z" fill="#006F00"/><path d="M150.017 43.053c-13.562-.004-24.559 8.32-24.559 18.587.217 10.532 6.382 11.1 6.292 17.426-.089 6.14-6.318 9.255-6.331 16.692.115 11.125 6.276 10.246 6.361 16.739.085 6.681-6.147 5.665-6.361 17.391 0 10.267 11.036 18.613 24.598 18.613 13.567 0 24.564-8.324 24.564-18.591-.005-7.432-6.472-11.253-6.506-17.401-.034-6.147 6.288-7.013 6.506-16.734-.303-10.527-6.566-10.263-6.498-17.008.056-5.976 6.481-9.703 6.498-17.127 0-10.267-10.997-18.591-24.564-18.591v.004zm-.021 12.252c2.258 0 4.077 1.362 4.077 3.053v74.835c0 1.69-1.819 3.052-4.077 3.052-2.254 0-4.073-1.366-4.073-3.052V58.357c0-1.69 1.819-3.052 4.073-3.052z" fill="#B93C3C"/><path d="M225.979 43.053c-13.567-.004-24.564 8.32-24.564 18.587.218 10.532 6.383 11.1 6.293 17.426-.09 6.14-6.318 9.255-6.331 16.692.12 11.125 6.276 10.246 6.361 16.739.085 6.681-6.147 5.665-6.361 17.391 0 10.267 11.035 18.613 24.602 18.613 13.563 0 24.56-8.324 24.56-18.591-.005-7.432-6.472-11.253-6.506-17.401-.034-6.147 6.292-7.013 6.506-16.734-.299-10.527-6.566-10.263-6.498-17.008.056-5.976 6.481-9.703 6.498-17.127 0-10.267-10.997-18.591-24.56-18.591v.004zm-.021 12.252c2.254 0 4.072 1.362 4.072 3.053v74.835c0 1.69-1.818 3.052-4.072 3.052-2.258 0-4.073-1.366-4.073-3.052V58.357c0-1.69 1.815-3.052 4.073-3.052zM74.063 157.274c-13.566 0-24.563 8.324-24.559 18.591.214 10.532 6.382 11.1 6.288 17.426-.09 6.139-6.314 9.255-6.33 16.692.119 11.125 6.275 10.245 6.36 16.743.085 6.681-6.147 5.66-6.36 17.387 0 10.267 11.035 18.613 24.601 18.613 13.563 0 24.56-8.324 24.56-18.591 0-7.428-6.468-11.249-6.502-17.396-.034-6.148 6.288-7.019 6.502-16.735-.3-10.531-6.566-10.267-6.498-17.007.06-5.977 6.48-9.708 6.498-17.132 0-10.267-10.997-18.591-24.56-18.591zm-.021 12.256c2.254 0 4.073 1.366 4.073 3.052v74.836c0 1.69-1.819 3.052-4.073 3.052-2.258 0-4.073-1.362-4.073-3.052v-74.836c0-1.69 1.815-3.052 4.073-3.052z" fill="#006F00"/><path d="M150.021 157.274c-13.562 0-24.559 8.324-24.559 18.591.213 10.532 6.382 11.1 6.288 17.426-.085 6.139-6.314 9.255-6.327 16.692.116 11.125 6.276 10.245 6.361 16.743.086 6.681-6.147 5.66-6.361 17.387 0 10.267 11.036 18.613 24.598 18.613 13.563 0 24.56-8.324 24.56-18.591 0-7.428-6.468-11.249-6.502-17.396-.034-6.148 6.288-7.019 6.502-16.735-.299-10.531-6.562-10.267-6.498-17.007.06-5.977 6.485-9.708 6.498-17.132 0-10.267-10.997-18.591-24.56-18.591zM150 169.53c2.258 0 4.073 1.366 4.073 3.052v74.836c0 1.69-1.815 3.052-4.073 3.052-2.258 0-4.072-1.362-4.072-3.052v-74.836c0-1.69 1.814-3.052 4.072-3.052z" fill="#B93C3C"/><path d="M225.979 157.274c-13.563 0-24.559 8.324-24.559 18.591.213 10.532 6.382 11.1 6.288 17.426-.085 6.139-6.31 9.255-6.327 16.692.116 11.125 6.276 10.245 6.361 16.743.085 6.681-6.147 5.66-6.361 17.387 0 10.267 11.035 18.613 24.598 18.613 13.567 0 24.564-8.324 24.559-18.591 0-7.428-6.467-11.249-6.501-17.396-.034-6.148 6.288-7.019 6.501-16.735-.298-10.531-6.561-10.267-6.497-17.007.06-5.977 6.485-9.708 6.497-17.132 0-10.267-10.992-18.591-24.559-18.591zm-.021 12.256c2.258 0 4.077 1.366 4.077 3.052v74.836c0 1.69-1.819 3.052-4.077 3.052-2.254 0-4.073-1.362-4.073-3.052v-74.836c0-1.69 1.819-3.052 4.073-3.052zM74.063 271.495c-13.566 0-24.563 8.324-24.559 18.591.214 10.531 6.382 11.099 6.288 17.426-.09 6.139-6.314 9.255-6.33 16.692.119 11.125 6.275 10.245 6.36 16.742.085 6.681-6.147 5.661-6.36 17.388 0 10.267 11.035 18.613 24.601 18.613 13.563 0 24.56-8.325 24.56-18.592 0-7.428-6.468-11.248-6.502-17.396-.034-6.147 6.288-7.018 6.502-16.734-.3-10.532-6.566-10.267-6.498-17.008.06-5.976 6.48-9.707 6.498-17.131 0-10.267-10.997-18.591-24.56-18.591zm-.021 12.256c2.254 0 4.073 1.366 4.073 3.052v74.835c0 1.691-1.819 3.052-4.073 3.052-2.258 0-4.073-1.361-4.073-3.052v-74.835c0-1.69 1.815-3.052 4.073-3.052z" fill="#006F00"/><path d="M150.021 271.495c-13.562 0-24.559 8.324-24.559 18.591.213 10.531 6.382 11.099 6.288 17.426-.085 6.139-6.314 9.255-6.327 16.692.116 11.125 6.276 10.245 6.361 16.742.086 6.681-6.147 5.661-6.361 17.388 0 10.267 11.036 18.613 24.598 18.613 13.563 0 24.56-8.325 24.56-18.592 0-7.428-6.468-11.248-6.502-17.396-.034-6.147 6.288-7.018 6.502-16.734-.299-10.532-6.562-10.267-6.498-17.008.06-5.976 6.485-9.707 6.498-17.131 0-10.267-10.997-18.591-24.56-18.591zM150 283.751c2.258 0 4.073 1.366 4.073 3.052v74.835c0 1.691-1.815 3.052-4.073 3.052-2.258 0-4.072-1.361-4.072-3.052v-74.835c0-1.69 1.814-3.052 4.072-3.052z" fill="#B93C3C"/><path d="M225.979 271.495c-13.563 0-24.559 8.324-24.559 18.591.213 10.531 6.382 11.099 6.288 17.426-.085 6.139-6.31 9.255-6.327 16.692.116 11.125 6.276 10.245 6.361 16.742.085 6.681-6.147 5.661-6.361 17.388 0 10.267 11.035 18.613 24.598 18.613 13.567 0 24.564-8.325 24.559-18.592 0-7.428-6.467-11.248-6.501-17.396-.034-6.147 6.288-7.018 6.501-16.734-.298-10.532-6.561-10.267-6.497-17.008.06-5.976 6.485-9.707 6.497-17.131 0-10.267-10.992-18.591-24.559-18.591zm-.021 12.256c2.258 0 4.077 1.366 4.077 3.052v74.835c0 1.691-1.819 3.052-4.077 3.052-2.254 0-4.073-1.361-4.073-3.052v-74.835c0-1.69 1.819-3.052 4.073-3.052z" fill="#006F00"/></g><defs><clipPath id="a"><path fill="#fff" transform="translate(49.46 43.053)" d="M0 0h201.078v333.893H0z"/></clipPath></defs></g><path d="M133 -38 129 -31Q222 -3 278.5 39.5Q335 82 364.5 137.5Q394 193 404.0 260.5Q414 328 414 408Q414 490 405.0 547.5Q396 605 373.0 634.0Q350 663 307 663Q266 663 242.5 638.0Q219 613 209.5 572.5Q200 532 200 485Q201 431 211.0 396.5Q221 362 239.5 344.5Q258 327 284 324Q310 319 333.5 327.5Q357 336 372 351L379 343Q360 311 329.0 291.5Q298 272 260.0 266.0Q222 260 184.5 269.0Q147 278 115.0 303.0Q83 328 64.5 370.0Q46 412 46 472Q47 541 76.5 594.5Q106 648 163.5 679.0Q221 710 305 711Q436 713 508.0 635.0Q580 557 580 398Q580 303 552.5 221.5Q525 140 469.5 79.5Q414 19 330.5 -12.5Q247 -44 133 -38Z" transform="translate(24.044 91.318) scale(0.086 -0.086)" fill="#1E40AF"/></svg>